<svg width="15" height="15" viewBox="0 0 15 15" fill="none" xmlns="http://www.w3.org/2000/svg">
<path fill-rule="evenodd" clip-rule="evenodd" d="M7.4999 0.748901C4.22004 0.748901 1.56348 3.39487 1.56348 6.6617C1.56348 9.27814 3.26279 11.4881 5.6225 12.2715C5.91932 12.3232 6.03063 12.1458 6.03063 11.9906C6.03063 11.8502 6.0232 11.3846 6.0232 10.8894C4.53169 11.1629 4.14584 10.5272 4.0271 10.1946C3.96032 10.0246 3.67092 9.49988 3.41859 9.35942C3.21083 9.24857 2.91401 8.97512 3.4112 8.96773C3.87869 8.96033 4.21261 9.39638 4.32392 9.57377C4.85819 10.4681 5.71156 10.2168 6.05291 10.0616C6.10484 9.67726 6.26068 9.41856 6.43134 9.27074C5.11048 9.12293 3.73028 8.61296 3.73028 6.35129C3.73028 5.70829 3.96032 5.1761 4.33874 4.76223C4.27939 4.61441 4.07163 4.00834 4.39813 3.19531C4.39813 3.19531 4.89529 3.0401 6.03063 3.80139C6.50554 3.66836 7.01017 3.60182 7.51475 3.60182C8.01934 3.60182 8.52393 3.66836 8.99884 3.80139C10.1342 3.03271 10.6314 3.19531 10.6314 3.19531C10.9579 4.00834 10.7501 4.61441 10.6907 4.76223C11.0692 5.1761 11.2992 5.70089 11.2992 6.35129C11.2992 8.62035 9.9116 9.12293 8.59074 9.27074C8.80593 9.45552 8.99145 9.81029 8.99145 10.3646C8.99145 11.1555 8.98402 11.7911 8.98402 11.9906C8.98402 12.1458 9.09533 12.3306 9.39215 12.2715C11.737 11.4881 13.4363 9.27075 13.4363 6.6617C13.4363 3.39487 10.7798 0.748901 7.4999 0.748901Z" fill="black"/>
</svg>
