<svg width="15" height="15" viewBox="0 0 15 15" fill="none" xmlns="http://www.w3.org/2000/svg">
<path d="M2.89129 11.5035H4.58928V7.37971L2.16357 5.56042V10.7757C2.16357 11.1784 2.48982 11.5035 2.89129 11.5035Z" fill="black"/>
<path d="M10.4109 11.5035H12.1089C12.5116 11.5035 12.8366 11.1772 12.8366 10.7757V5.56042L10.4109 7.37971" fill="black"/>
<path d="M10.4109 4.22649V7.37994L12.8366 5.56062V4.59036C12.8366 3.69042 11.8093 3.17735 11.0901 3.71709" fill="black"/>
<path d="M4.58911 7.37974V4.22632L7.49999 6.40948L10.4109 4.22632V7.37974L7.49999 9.5629" fill="black"/>
<path d="M2.16357 4.59036V5.56062L4.58928 7.37994V4.22649L3.9101 3.71709C3.18965 3.17735 2.16357 3.69042 2.16357 4.59036Z" fill="black"/>
</svg>
