<svg width="15" height="15" viewBox="0 0 15 15" fill="none" xmlns="http://www.w3.org/2000/svg">
<path d="M4.53452 12.6961V5.68392H2.20588V12.6961H4.53452ZM3.37068 4.72671C4.18257 4.72671 4.68798 4.18829 4.68798 3.51536C4.67279 2.82712 4.18257 2.30371 3.38612 2.30371C2.58911 2.30371 2.0686 2.82712 2.0686 3.51532C2.0686 4.1882 2.57388 4.72666 3.3554 4.72666L3.37068 4.72671ZM5.82344 12.6961H8.1519V8.78058C8.1519 8.57127 8.16709 8.36144 8.22861 8.21197C8.39686 7.79308 8.78001 7.35945 9.42348 7.35945C10.2659 7.35945 10.603 8.00244 10.603 8.94516V12.6961H12.9314V8.6755C12.9314 6.52177 11.7828 5.51952 10.2508 5.51952C8.99473 5.51952 8.44307 6.22221 8.13659 6.70076H8.15208V5.68418H5.82357C5.85394 6.34201 5.82344 12.6961 5.82344 12.6961Z" fill="black"/>
</svg>
