<svg width="15" height="15" viewBox="0 0 15 15" fill="none" xmlns="http://www.w3.org/2000/svg">
<path d="M8.24475 7.50001C8.24475 9.2717 6.78442 10.7103 4.97539 10.7103C3.16635 10.7103 1.70605 9.2717 1.70605 7.50001C1.70605 5.72836 3.16635 4.28979 4.97539 4.28979C6.78442 4.28979 8.24475 5.72836 8.24475 7.50001ZM11.8265 7.50001C11.8265 9.16537 11.0927 10.5189 10.1918 10.5189C9.29091 10.5189 8.55714 9.16537 8.55714 7.50001C8.55714 5.83465 9.29091 4.48113 10.1918 4.48113C11.0927 4.48113 11.8265 5.82758 11.8265 7.50001ZM13.294 7.50001C13.294 8.99531 13.0398 10.2071 12.7201 10.2071C12.4004 10.2071 12.1461 8.99531 12.1461 7.50001C12.1461 6.00475 12.4004 4.79294 12.7201 4.79294C13.0398 4.79294 13.294 6.00475 13.294 7.50001Z" fill="black"/>
</svg>
