<svg width="15" height="15" viewBox="0 0 15 15" fill="none" xmlns="http://www.w3.org/2000/svg">
<path d="M1.53174 13.461L2.36975 10.3995C1.85264 9.50339 1.58092 8.48754 1.58141 7.44587C1.5829 4.1892 4.23304 1.53906 7.4892 1.53906C9.06934 1.53956 10.5526 2.15503 11.6683 3.27171C12.7835 4.3884 13.3975 5.87267 13.397 7.45133C13.3955 10.7085 10.7454 13.3586 7.4892 13.3586C6.50067 13.3581 5.52656 13.1103 4.66371 12.6393L1.53174 13.461ZM4.80876 11.5698C5.64131 12.0641 6.4361 12.3602 7.48721 12.3607C10.1935 12.3607 12.398 10.1581 12.3995 7.45034C12.4005 4.73711 10.2064 2.53752 7.49118 2.53653C4.78293 2.53653 2.57987 4.7391 2.57888 7.44636C2.57838 8.55162 2.90226 9.3792 3.44619 10.245L2.94994 12.0572L4.80876 11.5698ZM10.4652 8.85563C10.4284 8.79403 10.3301 8.75727 10.182 8.68326C10.0345 8.60924 9.30877 8.25208 9.17316 8.20291C9.03804 8.15373 8.93969 8.12889 8.84084 8.27692C8.74248 8.42445 8.45934 8.75727 8.3734 8.85563C8.28746 8.95399 8.20103 8.9664 8.0535 8.89239C7.90596 8.81837 7.43008 8.66289 6.86628 8.15969C6.42765 7.76825 6.1311 7.28492 6.04516 7.13689C5.95922 6.98936 6.03622 6.90938 6.10974 6.83586C6.1763 6.76979 6.25727 6.66349 6.33128 6.57706C6.40629 6.49162 6.43063 6.43002 6.48031 6.33117C6.52949 6.23281 6.50514 6.14638 6.46789 6.07236C6.43063 5.99885 6.13557 5.27211 6.01287 4.97654C5.89266 4.68893 5.77096 4.72767 5.68055 4.7232L5.3974 4.71823C5.29905 4.71823 5.1391 4.75499 5.00398 4.90302C4.86887 5.05105 4.48737 5.40772 4.48737 6.13446C4.48737 6.8612 5.0164 7.5631 5.08992 7.66145C5.16393 7.75981 6.1306 9.25104 7.61139 9.89035C7.96359 10.0424 8.23878 10.1333 8.45288 10.2013C8.80656 10.3136 9.12845 10.2977 9.38279 10.2599C9.66643 10.2177 10.2561 9.90277 10.3793 9.55803C10.5024 9.21279 10.5024 8.91723 10.4652 8.85563Z" fill="black" stroke="black" stroke-width="0.2"/>
</svg>
