<svg width="902" height="428" viewBox="0 0 902 428" fill="none" xmlns="http://www.w3.org/2000/svg">
<circle cx="-13.5" cy="268.5" r="17.5" fill="#F45050" fill-opacity="0.2"/>
<circle cx="46.5" cy="268.5" r="17.5" fill="#F45050" fill-opacity="0.2"/>
<circle cx="108.5" cy="268.5" r="17.5" fill="#F45050" fill-opacity="0.2"/>
<circle cx="168.5" cy="268.5" r="17.5" fill="#F45050" fill-opacity="0.2"/>
<circle cx="-13.5" cy="319.5" r="17.5" fill="#F45050" fill-opacity="0.2"/>
<circle cx="46.5" cy="319.5" r="17.5" fill="#F45050" fill-opacity="0.2"/>
<circle cx="108.5" cy="319.5" r="17.5" fill="#F45050" fill-opacity="0.2"/>
<circle cx="168.5" cy="319.5" r="17.5" fill="#F45050" fill-opacity="0.2"/>
<circle cx="-13.5" cy="370.5" r="17.5" fill="#F45050" fill-opacity="0.2"/>
<circle cx="46.5" cy="370.5" r="17.5" fill="#F45050" fill-opacity="0.2"/>
<circle cx="108.5" cy="370.5" r="17.5" fill="#F45050" fill-opacity="0.2"/>
<circle cx="168.5" cy="370.5" r="17.5" fill="#F45050" fill-opacity="0.2"/>
<g filter="url(#filter0_f_7_676)">
<path d="M180 210.652C180 284.61 82.6356 368 8.86957 368C-64.8965 368 -108 239.028 -108 165.07C-108 91.112 -31.5052 60 42.2609 60C116.027 60 180 136.694 180 210.652Z" fill="url(#paint0_linear_7_676)" fill-opacity="0.12"/>
</g>
<path d="M657.873 341.612C661.191 342.424 664.62 342.94 667.79 344.122C674.721 346.669 681.431 349.807 687.329 354.274C696.435 361.251 707.2 363.65 718.039 365.828C722.057 366.64 725.892 365.791 729.283 363.539C732.159 361.657 734.961 359.663 737.726 357.596C740.859 355.233 743.882 352.686 747.016 350.324C754.721 344.491 763.606 341.944 773.043 341.095C778.573 340.578 783.734 342.239 788.711 344.528C794.057 347.001 799.366 349.585 804.748 351.948C811.31 354.79 818.131 356.71 825.32 357.264C829.633 357.596 833.504 356.969 837.227 354.532C845.891 348.884 855.697 346.743 865.762 345.525C870.997 344.897 876.084 345.783 881.061 347.223C886.259 348.699 891.384 350.434 896.434 352.28C898.204 352.945 899.826 354.126 901.337 355.307C902.443 356.193 902.075 358.334 900.895 359.183C898.794 360.734 896.397 361.177 893.891 360.549C890.315 359.7 886.665 358.999 883.236 357.707C869.338 352.465 856.213 354.975 843.458 361.472C841.504 362.469 839.66 363.724 837.633 364.684C833.762 366.53 829.67 367.047 825.43 366.567C817.062 365.681 808.951 363.872 801.283 360.402C796.822 358.371 792.214 356.562 787.974 354.126C776.582 347.555 765.707 349.881 755.089 355.75C751.698 357.633 748.749 360.402 745.578 362.727C741.818 365.496 738.131 368.339 734.223 370.923C728.656 374.651 722.463 375.796 715.901 374.467C703.809 371.993 692.011 368.892 682.058 360.918C676.859 356.747 670.703 354.126 664.62 351.505C658.721 348.958 653.118 349.622 647.698 352.686C641.173 356.378 635.791 361.324 631.809 367.711C632.252 370.48 630.04 370.849 628.27 371.513C626.279 372.252 624.657 370.923 625.063 369.003C625.321 367.822 625.616 366.603 626.169 365.496C630.887 356.267 637.56 348.921 647.035 344.417C650.463 342.867 653.966 341.833 657.873 341.612Z" fill="black"/>
<defs>
<filter id="filter0_f_7_676" x="-168" y="0" width="408" height="428" filterUnits="userSpaceOnUse" color-interpolation-filters="sRGB">
<feFlood flood-opacity="0" result="BackgroundImageFix"/>
<feBlend mode="normal" in="SourceGraphic" in2="BackgroundImageFix" result="shape"/>
<feGaussianBlur stdDeviation="30" result="effect1_foregroundBlur_7_676"/>
</filter>
<linearGradient id="paint0_linear_7_676" x1="-108" y1="214" x2="180" y2="214" gradientUnits="userSpaceOnUse">
<stop stop-color="#FFBB36"/>
<stop offset="1" stop-color="#F45050"/>
</linearGradient>
</defs>
</svg>
