<svg width="113" height="90" viewBox="0 0 113 90" fill="none" xmlns="http://www.w3.org/2000/svg">
<path d="M83.3785 21.5014C82.7581 24.38 80.4459 24.4513 79.0372 25.6234C78.0636 26.414 77.0793 27.3401 76.6353 28.5497C75.6882 31.1468 78.7377 35.2875 81.6385 35.4573C83.0855 35.5136 84.5298 35.32 85.7266 34.8385C93.2352 31.7883 100.737 28.6809 108.17 25.4444C109.543 24.8717 110.666 23.7613 111.561 22.5345C112.944 20.6911 111.554 17.0512 108.971 15.278C108.245 14.7786 107.447 14.3429 106.679 13.9431C99.1599 10.1249 91.658 6.22837 84.1281 2.54577C82.3729 1.68699 80.4621 1.09093 78.7329 0.903507C75.4087 0.537042 74.6956 3.30769 77.085 6.82827C77.7614 7.81268 78.6688 8.72069 79.9985 10.268C78.5678 10.576 77.6436 10.8816 76.5581 10.95C69.6794 11.4287 62.825 11.8862 55.9396 12.3076C40.6386 13.2935 28.6081 19.6143 18.0434 28.1835C14.76 30.8732 11.9365 34.2953 9.91807 38.2104C6.7468 44.3352 4.16694 50.951 1.86932 57.6979C-0.699202 65.3133 0.97056 74.2604 5.26455 83.7459C5.98425 85.3233 7.07218 87.0826 8.33715 88.3081C9.26873 89.1949 11.0346 89.9182 11.9171 89.7122C12.7997 89.5062 13.4922 88.1418 13.333 87.0194C13.1479 85.2257 12.3191 83.1761 11.6382 81.2492C8.92516 73.4062 8.70088 66.5359 11.1481 60.6043C13.6853 54.5307 15.6068 47.9874 19.4989 42.9973C28.1262 32.0255 40.0397 25.6178 54.6103 23.1902C62.535 21.8574 71.0598 21.7653 79.3342 21.1354C80.4991 21.0606 81.7594 21.3436 83.3785 21.5014Z" fill="#001324"/>
</svg>
