<svg width="228" height="80" viewBox="0 0 228 80" fill="none" xmlns="http://www.w3.org/2000/svg">
<path fill-rule="evenodd" clip-rule="evenodd" d="M119 3.5C119 1.567 120.567 0 122.5 0C124.433 0 126 1.567 126 3.5V76.5C126 78.433 124.433 80 122.5 80C120.567 80 119 78.433 119 76.5V3.5ZM20.5 28C18.567 28 17 29.567 17 31.5V76.5C17 78.433 18.567 80 20.5 80C22.433 80 24 78.433 24 76.5V31.5C24 29.567 22.433 28 20.5 28ZM3.5 50C1.567 50 0 51.567 0 53.5V76.5C0 78.433 1.567 80 3.5 80C5.433 80 7 78.433 7 76.5V53.5C7 51.567 5.433 50 3.5 50ZM34 53.5C34 51.567 35.567 50 37.5 50C39.433 50 41 51.567 41 53.5V76.5C41 78.433 39.433 80 37.5 80C35.567 80 34 78.433 34 76.5V53.5ZM54.5 59C52.567 59 51 60.567 51 62.5V76.5C51 78.433 52.567 80 54.5 80C56.433 80 58 78.433 58 76.5V62.5C58 60.567 56.433 59 54.5 59ZM139.5 22C137.567 22 136 23.567 136 25.5V76.5C136 78.433 137.567 80 139.5 80C141.433 80 143 78.433 143 76.5V25.5C143 23.567 141.433 22 139.5 22ZM153 61.5C153 59.567 154.567 58 156.5 58C158.433 58 160 59.567 160 61.5V76.5C160 78.433 158.433 80 156.5 80C154.567 80 153 78.433 153 76.5V61.5ZM173.5 18C171.567 18 170 19.567 170 21.5V76.5C170 78.433 171.567 80 173.5 80C175.433 80 177 78.433 177 76.5V21.5C177 19.567 175.433 18 173.5 18ZM68 29.5C68 27.567 69.567 26 71.5 26C73.433 26 75 27.567 75 29.5V76.5C75 78.433 73.433 80 71.5 80C69.567 80 68 78.433 68 76.5V29.5ZM190.5 45C188.567 45 187 46.567 187 48.5V76.5C187 78.433 188.567 80 190.5 80C192.433 80 194 78.433 194 76.5V48.5C194 46.567 192.433 45 190.5 45ZM204 43.5C204 41.567 205.567 40 207.5 40C209.433 40 211 41.567 211 43.5V76.5C211 78.433 209.433 80 207.5 80C205.567 80 204 78.433 204 76.5V43.5ZM224.5 50C222.567 50 221 51.567 221 53.5V76.5C221 78.433 222.567 80 224.5 80C226.433 80 228 78.433 228 76.5V53.5C228 51.567 226.433 50 224.5 50ZM85 52.5C85 50.567 86.567 49 88.5 49C90.433 49 92 50.567 92 52.5V76.5C92 78.433 90.433 80 88.5 80C86.567 80 85 78.433 85 76.5V52.5ZM105.5 50C103.567 50 102 51.567 102 53.5V76.5C102 78.433 103.567 80 105.5 80C107.433 80 109 78.433 109 76.5V53.5C109 51.567 107.433 50 105.5 50Z" fill="#F45050"/>
</svg>
