<svg width="60" height="61" viewBox="0 0 60 61" fill="none" xmlns="http://www.w3.org/2000/svg">
<rect y="0.970947" width="60" height="60" rx="20" fill="#001324"/>
<path fill-rule="evenodd" clip-rule="evenodd" d="M29.9697 14.7322C20.6525 14.7322 13.1059 22.2487 13.1059 31.5289C13.1059 38.9615 17.9332 45.2393 24.6365 47.4648C25.4797 47.6118 25.7959 47.1079 25.7959 46.667C25.7959 46.2681 25.7748 44.9453 25.7748 43.5386C21.5378 44.3155 20.4417 42.5098 20.1044 41.565C19.9147 41.0821 19.0926 39.5914 18.3758 39.1924C17.7856 38.8775 16.9424 38.1007 18.3548 38.0797C19.6828 38.0587 20.6314 39.2974 20.9476 39.8013C22.4653 42.3418 24.8895 41.628 25.8592 41.1871C26.0067 40.0953 26.4494 39.3604 26.9342 38.9405C23.182 38.5206 19.2612 37.0719 19.2612 30.6471C19.2612 28.8205 19.9147 27.3087 20.9897 26.133C20.8211 25.7131 20.2309 23.9914 21.1584 21.6818C21.1584 21.6818 22.5707 21.2409 25.7959 23.4035C27.145 23.0256 28.5785 22.8366 30.0119 22.8366C31.4453 22.8366 32.8787 23.0256 34.2278 23.4035C37.453 21.2199 38.8654 21.6818 38.8654 21.6818C39.7929 23.9914 39.2027 25.7131 39.034 26.133C40.1091 27.3087 40.7626 28.7995 40.7626 30.6471C40.7626 37.0929 36.8207 38.5206 33.0685 38.9405C33.6798 39.4654 34.2068 40.4732 34.2068 42.0479C34.2068 44.2945 34.1857 46.1001 34.1857 46.667C34.1857 47.1079 34.5019 47.6328 35.3451 47.4648C42.0063 45.2393 46.8335 38.9405 46.8335 31.5289C46.8335 22.2487 39.287 14.7322 29.9697 14.7322Z" fill="white"/>
</svg>
