<svg width="60" height="61" viewBox="0 0 60 61" fill="none" xmlns="http://www.w3.org/2000/svg">
<rect x="0.5" y="1.0437" width="59" height="59" rx="19.5" fill="white" stroke="#C4CFE3"/>
<path d="M15.039 43.9217H20.5976V30.422L12.6567 24.4663V41.5394C12.6567 42.8576 13.7247 43.9217 15.039 43.9217Z" fill="#001324"/>
<path d="M39.656 43.9217H45.2147C46.5329 43.9217 47.5969 42.8536 47.5969 41.5394V24.4663L39.656 30.422" fill="#001324"/>
<path d="M39.656 20.099V30.4223L47.5969 24.4665V21.2902C47.5969 18.3441 44.2339 16.6645 41.8794 18.4314" fill="#001324"/>
<path d="M20.5976 30.4221V20.0989L30.1268 27.2458L39.656 20.0989V30.4221L30.1268 37.569" fill="#001324"/>
<path d="M12.6567 21.2902V24.4665L20.5976 30.4223V20.099L18.3742 18.4314C16.0157 16.6645 12.6567 18.3441 12.6567 21.2902Z" fill="#001324"/>
</svg>
