<svg width="120" height="155" viewBox="0 0 120 155" fill="none" xmlns="http://www.w3.org/2000/svg">
<path d="M20.5317 53.5182C27.7765 46.8841 36.0137 42.0785 44.998 38.9588C60.2954 33.5307 75.942 31.8218 91.9326 33.9644C99.0528 34.9319 105.748 37.0718 111.653 41.6252C112.078 41.9743 112.503 42.3233 112.989 42.741C116.255 45.7919 117.171 49.4694 115.53 52.7063C113.89 55.9432 110.51 57.1871 106.284 56.0794C101.563 54.8181 96.7978 53.0919 92.0546 52.3588C64.2768 48.1883 40.126 56.6094 19.4656 76.3597C17.5032 78.2598 15.4207 80.0224 13.1038 81.3781C9.24959 83.4615 6.07637 81.2084 6.32666 76.6549C6.40821 74.674 6.99678 72.5825 7.88524 70.8347C11.1066 64.2922 15.2439 58.3844 20.5317 53.5182Z" fill="#001324"/>
<path d="M42.4462 148.656C42.25 148.846 42.1192 148.973 41.9229 149.163C38.5867 152.393 34.2525 152.405 31.6243 149.117C28.9962 145.829 29.6281 141.16 33.3895 138.279C36.4369 135.962 38.1975 132.863 39.0421 129.129C40.7531 121.132 36.7071 114.145 29.1179 112.363C25.8194 111.626 22.3684 111.544 19.059 111.071C18.3721 110.976 17.5106 110.542 17.1562 109.997C16.9817 109.659 17.4614 108.687 17.7993 108.107C21.2879 102.7 26.538 101.801 32.1044 102.371C43.608 103.659 52.1413 114.544 51.8701 127.232C51.7075 135.759 48.0937 142.681 42.4462 148.656Z" fill="#001324"/>
<path d="M94.5128 83.8343C96.0668 85.7533 97.4465 88.8554 97.2343 92.4844C97.1964 94.9303 96.1717 96.9368 93.8711 97.8963C91.7613 98.7979 90.0384 97.93 88.5935 96.4127C85.5837 93.2405 81.9363 91.8269 77.88 91.1895C75.5084 90.823 73.1422 90.3244 70.8524 89.4984C68.5625 88.6723 67.0631 86.9542 66.9864 84.2388C66.9098 81.5234 68.5997 80.1408 70.6549 79.0385C77.9055 75.3151 88.695 77.1679 94.5128 83.8343Z" fill="#001324"/>
</svg>
