<svg width="158" height="95" viewBox="0 0 158 95" fill="none" xmlns="http://www.w3.org/2000/svg">
<path fill-rule="evenodd" clip-rule="evenodd" d="M114.478 90.4748C128.407 90.8113 142.64 90.1382 155.958 94.9113C156.751 95.1928 157.624 94.7828 157.911 93.9873C158.192 93.1917 157.783 92.3167 156.989 92.0291C143.36 87.1459 128.803 87.7578 114.552 87.4151C113.709 87.3906 113.007 88.0638 112.988 88.9082C112.964 89.7527 113.636 90.4503 114.478 90.4748Z" fill="#001324"/>
<path fill-rule="evenodd" clip-rule="evenodd" d="M113.227 70.2094C117.568 66.2061 122.307 63.2071 128.034 61.7207C128.852 61.509 129.341 60.6737 129.133 59.8561C128.919 59.0386 128.083 58.5472 127.271 58.7589C121.043 60.3744 115.883 63.6067 111.163 67.9569C110.54 68.5284 110.497 69.4971 111.071 70.1189C111.639 70.74 112.61 70.7809 113.227 70.2094Z" fill="#001324"/>
<path fill-rule="evenodd" clip-rule="evenodd" d="M101.149 26.5034C103.14 19.665 107.06 14.3155 113.068 10.4524C113.776 9.99649 113.984 9.04923 113.526 8.33878C113.074 7.62833 112.128 7.42148 111.419 7.87737C104.77 12.1548 100.422 18.0746 98.2179 25.646C97.9798 26.4562 98.45 27.3068 99.256 27.5431C100.068 27.7799 100.917 27.3136 101.149 26.5034Z" fill="#001324"/>
<path d="M79.942 21.122C84.3079 25.2305 86.4084 33.8588 87.5014 43.1681C88.9835 55.7778 88.4415 69.6698 88.187 76.1928C88.1489 77.168 88.1173 77.9785 88.0998 78.5953L79.942 21.122ZM79.942 21.122L79.2567 21.8503C79.2567 21.8503 79.2568 21.8504 79.2568 21.8504L79.942 21.122ZM90.1026 39.5552L91.0917 39.4078C90.4257 34.9398 89.455 30.7001 88.1006 27.0545C86.7501 23.419 84.9934 20.307 82.7156 18.1633L82.7154 18.1631C68.8222 5.09412 50.4696 2.07203 37.8592 11.0305L37.8589 11.0307C36.8688 11.7347 35.9124 12.4915 35.0002 13.2989M90.1026 39.5552L40.782 15.1571C39.4894 16.0751 38.2745 17.0956 37.1544 18.2113C37.3432 19.2598 37.453 20.5446 37.4355 21.8477C37.4148 23.3778 37.2178 25.016 36.7122 26.3613L36.712 26.3617C36.1811 27.7727 35.2956 28.9424 34.0541 29.5605C32.7479 30.2122 31.1304 30.261 29.2779 29.3193L29.2772 29.319C27.6116 28.4709 27.0305 26.8472 27.1777 25.1718C27.3066 23.653 28.1014 21.9852 28.5241 21.2367C29.3497 19.7726 30.3016 18.3895 31.353 17.0946C26.1019 7.32192 14.6818 3.37731 4.58048 7.99796L4.57921 7.99854C3.30524 8.57914 1.81224 8.01528 1.2292 6.75099L1.22645 6.74502L1.22647 6.74501C0.652699 5.47899 1.20437 3.97727 2.479 3.39588M90.1026 39.5552C88.7836 30.7061 86.274 22.8856 82.0303 18.8915C68.3647 6.03665 50.5408 3.24809 38.4384 11.8457C37.4233 12.5674 36.4458 13.3456 35.5176 14.1772C35.3498 13.8799 35.1773 13.5871 35.0002 13.2989M90.1026 39.5552C91.4206 48.3933 91.6208 58.2536 91.525 66.0404C91.8551 65.2406 92.1951 64.4463 92.5441 63.6564C92.541 64.5417 92.5334 65.4059 92.5225 66.2452C92.1615 67.1152 91.8124 67.9912 91.4765 68.8748L34.2478 13.9858M35.0002 13.2989C28.1773 2.19398 14.5521 -2.12675 2.479 3.39588M35.0002 13.2989C34.7459 13.5239 34.4951 13.753 34.2478 13.9858M2.479 3.39588C2.47925 3.39576 2.4795 3.39565 2.47975 3.39554L2.89445 4.30549M2.479 3.39588C2.47882 3.39596 2.47864 3.39604 2.47846 3.39613L2.89445 4.30549M2.89445 4.30549C2.12508 4.65613 1.78924 5.56424 2.13729 6.33222L34.2478 13.9858M2.89445 4.30549C14.5595 -1.03077 27.7182 3.18289 34.2478 13.9858M132.052 7.94558C132.051 7.9449 132.05 7.94422 132.05 7.94354C132.049 7.94287 132.049 7.94219 132.048 7.94152L131.301 8.60616L132.052 7.94558ZM129.145 8.47764C115.937 20.2251 107.678 36.1306 99.6219 51.6465C98.9518 52.9369 98.2832 54.2247 97.6132 55.5071L129.145 8.47764ZM92.6761 77.9529C92.6786 77.9442 92.6811 77.9355 92.6836 77.9267C92.6841 77.9188 92.6846 77.9156 92.6844 77.9167C92.6842 77.9183 92.6825 77.9301 92.6771 77.9492L91.7146 77.678L92.6761 77.9529ZM87.3183 80.9881C87.319 80.9896 87.3197 80.9912 87.3204 80.9928C87.3218 80.9962 87.3233 80.9996 87.3248 81.003L88.2402 80.6006L87.3183 80.9881Z" fill="#001324" stroke="#001324" stroke-width="2"/>
</svg>
