<svg width="277" height="34" viewBox="0 0 277 34" fill="none" xmlns="http://www.w3.org/2000/svg">
<path d="M32.8735 0.611533C36.1914 1.42368 39.6199 1.94043 42.7904 3.12173C49.7213 5.66892 56.4309 8.80677 62.3295 13.2736C71.4354 20.2507 82.2004 22.6503 93.039 24.8283C97.0574 25.6405 100.892 24.7913 104.283 22.5395C107.159 20.6568 109.961 18.6633 112.726 16.596C115.859 14.2334 118.882 11.6863 122.016 9.32369C129.721 3.491 138.606 0.943812 148.043 0.0947485C153.573 -0.422072 158.734 1.23907 163.711 3.52784C169.057 6.0012 174.366 8.58534 179.748 10.948C186.31 13.7905 193.131 15.7101 200.32 16.2638C204.633 16.596 208.504 15.9685 212.227 13.5321C220.891 7.88394 230.697 5.74286 240.762 4.52464C245.997 3.89707 251.084 4.78291 256.061 6.22262C261.259 7.69926 266.384 9.43437 271.434 11.2802C273.204 11.9446 274.826 13.126 276.337 14.3073C277.443 15.1933 277.075 17.3344 275.895 18.1835C273.794 19.7339 271.397 20.1768 268.891 19.5493C265.315 18.7002 261.665 17.9989 258.236 16.7069C244.338 11.4648 231.213 13.975 218.458 20.4722C216.504 21.4689 214.66 22.7241 212.633 23.6839C208.762 25.5297 204.67 26.0465 200.43 25.5666C192.062 24.6807 183.951 22.8717 176.283 19.4016C171.822 17.3713 167.214 15.5624 162.974 13.1259C151.582 6.55494 140.707 8.8806 130.089 14.7502C126.698 16.6329 123.749 19.4016 120.578 21.7273C116.818 24.4959 113.131 27.3385 109.223 29.9226C103.656 33.6511 97.4629 34.7956 90.9008 33.4666C78.8087 30.9932 67.0115 27.8922 57.0576 19.9184C51.8595 15.7469 45.7029 13.1259 39.62 10.5049C33.7214 7.9577 28.1177 8.62226 22.6984 11.6863C16.1731 15.3778 10.7907 20.3245 6.80912 26.7109C7.25152 29.4796 5.03951 29.8488 3.26994 30.5133C1.27916 31.2516 -0.342928 29.9226 0.0625997 28.0029C0.320663 26.8216 0.615592 25.6034 1.16858 24.4959C5.88745 15.267 12.5602 7.9209 22.0348 3.41717C25.4633 1.86671 28.9657 0.833028 32.8735 0.611533Z" fill="black"/>
</svg>
