<svg width="60" height="61" viewBox="0 0 60 61" fill="none" xmlns="http://www.w3.org/2000/svg">
<rect y="0.771973" width="60" height="60" rx="20" fill="#001324"/>
<path d="M23.0983 42.93V26.7222H17.7159V42.93H23.0988H23.0983ZM20.4082 24.5097C22.2848 24.5097 23.453 23.2652 23.453 21.7098C23.4179 20.119 22.2848 18.9092 20.4439 18.9092C18.6017 18.9092 17.3986 20.119 17.3986 21.7097C17.3986 23.265 18.5665 24.5096 20.3729 24.5096H20.4078L20.4082 24.5097ZM26.0775 42.93H31.4595V33.8798C31.4595 33.396 31.4946 32.911 31.6368 32.5655C32.0257 31.5973 32.9113 30.595 34.3986 30.595C36.3457 30.595 37.125 32.0812 37.125 34.2602V42.93H42.5069V33.6369C42.5069 28.6588 39.8519 26.3422 36.3108 26.3422C33.4076 26.3422 32.1325 27.9664 31.4241 29.0725H31.4599V26.7228H26.0778C26.148 28.2433 26.0774 42.9305 26.0774 42.9305L26.0775 42.93Z" fill="white"/>
</svg>
