<svg width="60" height="61" viewBox="0 0 60 61" fill="none" xmlns="http://www.w3.org/2000/svg">
<rect y="0.74292" width="60" height="60" rx="20" fill="#001324"/>
<path d="M32.1599 31.5448C32.1599 36.6819 27.9256 40.8531 22.6802 40.8531C17.4348 40.8531 13.2006 36.6819 13.2006 31.5448C13.2006 26.4078 17.4348 22.2366 22.6802 22.2366C27.9256 22.2366 32.1599 26.4078 32.1599 31.5448ZM42.5453 31.5448C42.5453 36.3736 40.4177 40.2983 37.8055 40.2983C35.1933 40.2983 33.0657 36.3736 33.0657 31.5448C33.0657 26.716 35.1933 22.7914 37.8055 22.7914C40.4177 22.7914 42.5453 26.6955 42.5453 31.5448ZM46.8006 31.5448C46.8006 35.8805 46.0633 39.3942 45.1364 39.3942C44.2095 39.3942 43.4722 35.8805 43.4722 31.5448C43.4722 27.2092 44.2095 23.6955 45.1364 23.6955C46.0633 23.6955 46.8006 27.2092 46.8006 31.5448Z" fill="white"/>
</svg>
