<svg width="60" height="60" viewBox="0 0 60 60" fill="none" xmlns="http://www.w3.org/2000/svg">
<rect width="60" height="60" rx="20" fill="#001324"/>
<path d="M15.0001 43.8892L17.1525 35.886C15.4167 32.7683 14.8651 29.1302 15.5992 25.6394C16.3333 22.1485 18.3037 19.039 21.1489 16.8815C23.994 14.7239 27.5231 13.6631 31.0885 13.8935C34.654 14.124 38.0165 15.6304 40.5592 18.1363C43.1019 20.6421 44.6542 23.9793 44.9312 27.5356C45.2082 31.0918 44.1913 34.6285 42.0672 37.4966C39.9431 40.3647 36.8541 42.372 33.3673 43.1499C29.8804 43.9279 26.2295 43.4244 23.0844 41.7319L15.0001 43.8892ZM23.4742 38.737L23.9742 39.0331C26.2522 40.3811 28.9129 40.9389 31.5417 40.6197C34.1704 40.3004 36.6195 39.1219 38.5074 37.268C40.3952 35.414 41.6157 32.9886 41.9787 30.3699C42.3416 27.7511 41.8267 25.086 40.5141 22.7899C39.2015 20.4938 37.1649 18.6957 34.7218 17.6757C32.2787 16.6558 29.5662 16.4714 27.0072 17.1511C24.4481 17.8309 22.1861 19.3367 20.5738 21.4339C18.9614 23.5311 18.0892 26.1019 18.0932 28.7456C18.091 30.9377 18.6983 33.0874 19.8473 34.9554L20.1609 35.4714L18.9575 39.9383L23.4742 38.737Z" fill="white"/>
<path fill-rule="evenodd" clip-rule="evenodd" d="M35.609 30.8008C35.3159 30.5648 34.9727 30.3987 34.6056 30.3151C34.2384 30.2315 33.857 30.2327 33.4904 30.3186C32.9396 30.547 32.5837 31.4099 32.2278 31.8414C32.1527 31.9448 32.0425 32.0174 31.9176 32.0454C31.7928 32.0734 31.6621 32.055 31.5499 31.9937C29.5333 31.2052 27.843 29.7592 26.7535 27.8905C26.6606 27.7739 26.6166 27.6259 26.6308 27.4775C26.645 27.3292 26.7164 27.1922 26.8298 27.0953C27.2267 26.703 27.5182 26.217 27.6772 25.6824C27.7125 25.0928 27.5772 24.5054 27.2874 23.9904C27.0633 23.2684 26.637 22.6255 26.0586 22.1377C25.7603 22.0037 25.4296 21.9588 25.1063 22.0084C24.783 22.0579 24.481 22.1998 24.2367 22.4168C23.8125 22.7822 23.4759 23.2379 23.2515 23.7503C23.0271 24.2628 22.9207 24.8189 22.9401 25.3779C22.9414 25.6918 22.9813 26.0043 23.0588 26.3085C23.2556 27.0394 23.5582 27.7376 23.957 28.3812C24.2448 28.8742 24.5588 29.3515 24.8977 29.811C25.9989 31.3202 27.3832 32.6017 28.9737 33.5842C29.7719 34.0834 30.6249 34.4894 31.516 34.794C32.4416 35.2129 33.4636 35.3737 34.4734 35.2593C35.0488 35.1723 35.5939 34.9455 36.0609 34.5989C36.5278 34.2522 36.9023 33.7962 37.1513 33.2711C37.2976 32.9539 37.342 32.5993 37.2784 32.2559C37.1258 31.5537 36.1852 31.1392 35.609 30.8008Z" fill="white"/>
</svg>
